<svg id="Logo" xmlns="http://www.w3.org/2000/svg" viewBox="0 0 255 288"><defs><style>.cls-1{fill:#252759;}.cls-2{fill:#589cff;}</style></defs><title>datavisyn_d_RGB_blue</title><path class="cls-1" d="M128.21,87.8a116.1,116.1,0,0,0-21.84-5.48,142.74,142.74,0,0,0-22.6-2.08q-42.55,0-63.16,17T0,145.48v75.64q0,31,19.19,49.26t60.23,18.25a93,93,0,0,0,29.88-5.11q15.13-5.1,24.39-12.29l5.86,13.24h24.21V-.31H128.21Zm0,160.92q-7.37,4.54-20,8.23a94.29,94.29,0,0,1-26.47,3.69q-20.61,0-33.38-9.45T35.55,223.76V141.51q0-17.59,13.14-25.81t35.46-8.23q26.85,0,44.06,8.32Z"/><rect class="cls-2" x="201" y="233" width="50" height="50" shape-rendering="optimizeSpeed"/></svg>
